# xmcd
# 
# Track frame offsets:
#     150
#     17693
#     49868
#     67643
#     81316
#     100657
#     115557
#     140592
#     153591
#     174754
#     194017
#     211230
#     231653
#     265953
# 
# Disc length: 3757
# 
# Revision: 0
# Processed by: cddbd v1.5.2PL0 Copyright (c) Steve Scherf et al.
# Submitted via: fre:ac v1.0.27
# 
DISCID=bb0eab0e
DTITLE=Bob Marley - Legend
DYEAR=1995
DGENRE=Blues
TTITLE0=Is this love
TTITLE1=No Woman no cry
TTITLE2=Could you be loved
TTITLE3=Three little birds
TTITLE4=Buffalo soldier
TTITLE5=Get up stand up
TTITLE6=Stir it up
TTITLE7=One love - People get ready
TTITLE8=I shot the sheriff
TTITLE9=Waiting in vain
TTITLE10=Redemption song
TTITLE11=Satisfy my soul
TTITLE12=Exodus
TTITLE13=Jamming
EXTD=f YEAR: 1995
EXTT0=
EXTT1=
EXTT2=
EXTT3=
EXTT4=
EXTT5=
EXTT6=
EXTT7=
EXTT8=
EXTT9=
EXTT10=
EXTT11=
EXTT12=
EXTT13=
PLAYORDER=
